<svg xmlns="http://www.w3.org/2000/svg" viewBox="0 0 900 300" font-family="system-ui,'Noto Sans SC','Microsoft YaHei',sans-serif"><rect width="900" height="300" fill="#ffffff"/><line x1="30" y1="130.0" x2="290" y2="130.0" stroke="#bbb" stroke-width="1"/><line x1="160.0" y1="20" x2="160.0" y2="240" stroke="#bbb" stroke-width="1"/><line x1="30" y1="130.0" x2="290" y2="130.0" stroke="#1f4e9c" stroke-width="2.5"/><path d="M64.0 -53.6L66.4 -46.0L68.8 -38.6L71.2 -31.4L73.6 -24.4L76.0 -17.6L78.4 -11.0L80.8 -4.5L83.2 1.7L85.6 7.7L88.0 13.6L90.4 19.3L92.8 24.7L95.2 30.0L97.6 35.1L100.0 40.0L102.4 44.7L104.8 49.2L107.2 53.5L109.6 57.7L112.0 61.6L114.4 65.3L116.8 68.9L119.2 72.3L121.6 75.4L124.0 78.4L126.4 81.2L128.8 83.8L131.2 86.2L133.6 88.4L136.0 90.4L138.4 92.2L140.8 93.9L143.2 95.3L145.6 96.5L148.0 97.6L150.4 98.5L152.8 99.1L155.2 99.6L157.6 99.9L160.0 100.0L162.4 99.9L164.8 99.6L167.2 99.1L169.6 98.5L172.0 97.6L174.4 96.5L176.8 95.3L179.2 93.9L181.6 92.2L184.0 90.4L186.4 88.4L188.8 86.2L191.2 83.8L193.6 81.2L196.0 78.4L198.4 75.4L200.8 72.3L203.2 68.9L205.6 65.3L208.0 61.6L210.4 57.7L212.8 53.5L215.2 49.2L217.6 44.7L220.0 40.0L222.4 35.1L224.8 30.0L227.2 24.7L229.6 19.3L232.0 13.6L234.4 7.7L236.8 1.7L239.2 -4.5L241.6 -11.0L244.0 -17.6L246.4 -24.4L248.8 -31.4L251.2 -38.6L253.6 -46.0L256.0 -53.6" fill="none" stroke="#e07b39" stroke-width="2.5"/><text x="160.0" y="278" text-anchor="middle" font-size="15" fill="#333">t&lt;0：无交点</text><line x1="320" y1="130.0" x2="580" y2="130.0" stroke="#bbb" stroke-width="1"/><line x1="450.0" y1="20" x2="450.0" y2="240" stroke="#bbb" stroke-width="1"/><line x1="320" y1="130.0" x2="580" y2="130.0" stroke="#1f4e9c" stroke-width="2.5"/><path d="M354.0 -23.6L356.4 -16.0L358.8 -8.6L361.2 -1.4L363.6 5.6L366.0 12.4L368.4 19.0L370.8 25.5L373.2 31.7L375.6 37.7L378.0 43.6L380.4 49.3L382.8 54.7L385.2 60.0L387.6 65.1L390.0 70.0L392.4 74.7L394.8 79.2L397.2 83.5L399.6 87.7L402.0 91.6L404.4 95.3L406.8 98.9L409.2 102.3L411.6 105.4L414.0 108.4L416.4 111.2L418.8 113.8L421.2 116.2L423.6 118.4L426.0 120.4L428.4 122.2L430.8 123.9L433.2 125.3L435.6 126.5L438.0 127.6L440.4 128.5L442.8 129.1L445.2 129.6L447.6 129.9L450.0 130.0L452.4 129.9L454.8 129.6L457.2 129.1L459.6 128.5L462.0 127.6L464.4 126.5L466.8 125.3L469.2 123.9L471.6 122.2L474.0 120.4L476.4 118.4L478.8 116.2L481.2 113.8L483.6 111.2L486.0 108.4L488.4 105.4L490.8 102.3L493.2 98.9L495.6 95.3L498.0 91.6L500.4 87.7L502.8 83.5L505.2 79.2L507.6 74.7L510.0 70.0L512.4 65.1L514.8 60.0L517.2 54.7L519.6 49.3L522.0 43.6L524.4 37.7L526.8 31.7L529.2 25.5L531.6 19.0L534.0 12.4L536.4 5.6L538.8 -1.4L541.2 -8.6L543.6 -16.0L546.0 -23.6" fill="none" stroke="#e07b39" stroke-width="2.5"/><circle cx="450.0" cy="130.0" r="4.5" fill="#c0392b"/><text x="450.0" y="278" text-anchor="middle" font-size="15" fill="#333">t=0：相切于一点（D₀）</text><line x1="610" y1="130.0" x2="870" y2="130.0" stroke="#bbb" stroke-width="1"/><line x1="740.0" y1="20" x2="740.0" y2="240" stroke="#bbb" stroke-width="1"/><line x1="610" y1="130.0" x2="870" y2="130.0" stroke="#1f4e9c" stroke-width="2.5"/><path d="M644.0 6.4L646.4 14.0L648.8 21.4L651.2 28.6L653.6 35.6L656.0 42.4L658.4 49.0L660.8 55.5L663.2 61.7L665.6 67.7L668.0 73.6L670.4 79.3L672.8 84.7L675.2 90.0L677.6 95.1L680.0 100.0L682.4 104.7L684.8 109.2L687.2 113.5L689.6 117.7L692.0 121.6L694.4 125.3L696.8 128.9L699.2 132.3L701.6 135.4L704.0 138.4L706.4 141.2L708.8 143.8L711.2 146.2L713.6 148.4L716.0 150.4L718.4 152.2L720.8 153.9L723.2 155.3L725.6 156.5L728.0 157.6L730.4 158.5L732.8 159.1L735.2 159.6L737.6 159.9L740.0 160.0L742.4 159.9L744.8 159.6L747.2 159.1L749.6 158.5L752.0 157.6L754.4 156.5L756.8 155.3L759.2 153.9L761.6 152.2L764.0 150.4L766.4 148.4L768.8 146.2L771.2 143.8L773.6 141.2L776.0 138.4L778.4 135.4L780.8 132.3L783.2 128.9L785.6 125.3L788.0 121.6L790.4 117.7L792.8 113.5L795.2 109.2L797.6 104.7L800.0 100.0L802.4 95.1L804.8 90.0L807.2 84.7L809.6 79.3L812.0 73.6L814.4 67.7L816.8 61.7L819.2 55.5L821.6 49.0L824.0 42.4L826.4 35.6L828.8 28.6L831.2 21.4L833.6 14.0L836.0 6.4" fill="none" stroke="#e07b39" stroke-width="2.5"/><circle cx="697.6" cy="130.0" r="4.5" fill="#c0392b"/><circle cx="782.4" cy="130.0" r="4.5" fill="#c0392b"/><text x="740.0" y="278" text-anchor="middle" font-size="15" fill="#333">t&gt;0：交出一个圆</text></svg>