<svg xmlns="http://www.w3.org/2000/svg" viewBox="0 0 740 300" width="740" height="300" font-family="ui-sans-serif,system-ui,-apple-system,Segoe UI,PingFang SC,Microsoft YaHei,Helvetica,Arial,sans-serif"><title>discrete mean curvature</title><rect width="740" height="300" fill="#fbfbfd"/><defs><marker id="ar" viewBox="0 0 10 10" refX="9" refY="5" markerWidth="7" markerHeight="7" orient="auto-start-reverse"><path d="M0 0 L10 5 L0 10 z" fill="#1c2033"/></marker><marker id="arD" viewBox="0 0 10 10" refX="9" refY="5" markerWidth="6" markerHeight="6" orient="auto-start-reverse"><path d="M0 0 L10 5 L0 10 z" fill="#e07a1f"/></marker><marker id="arR" viewBox="0 0 10 10" refX="9" refY="5" markerWidth="7" markerHeight="7" orient="auto-start-reverse"><path d="M0 0 L10 5 L0 10 z" fill="#c2405a"/></marker><marker id="arG" viewBox="0 0 10 10" refX="9" refY="5" markerWidth="7" markerHeight="7" orient="auto-start-reverse"><path d="M0 0 L10 5 L0 10 z" fill="#1f9d6d"/></marker></defs><g transform="translate(20,16)"><text x="160" y="18" font-size="12.5" fill="#1c2033" text-anchor="middle" font-weight="600">顶点星形：A_v 与 K_v</text><polygon points="160,150 160.0,70.9 239.7,110.4" fill="#e5eaf6" stroke="#dde1ec" stroke-width="1.2"/><polygon points="160,150 239.7,110.4 239.7,189.6" fill="#eef1f9" stroke="#dde1ec" stroke-width="1.2"/><polygon points="160,150 239.7,189.6 160.0,229.1" fill="#e5eaf6" stroke="#dde1ec" stroke-width="1.2"/><polygon points="160,150 160.0,229.1 80.3,189.6" fill="#eef1f9" stroke="#dde1ec" stroke-width="1.2"/><polygon points="160,150 80.3,189.6 80.3,110.4" fill="#e5eaf6" stroke="#dde1ec" stroke-width="1.2"/><polygon points="160,150 80.3,110.4 160.0,70.9" fill="#eef1f9" stroke="#dde1ec" stroke-width="1.2"/><circle cx="160" cy="70.88" r="3.4" fill="#6b7290" stroke="none" stroke-width="1.5"/><circle cx="239.67433714816835" cy="110.44" r="3.4" fill="#6b7290" stroke="none" stroke-width="1.5"/><circle cx="239.67433714816838" cy="189.56" r="3.4" fill="#6b7290" stroke="none" stroke-width="1.5"/><circle cx="160" cy="229.12" r="3.4" fill="#6b7290" stroke="none" stroke-width="1.5"/><circle cx="80.32566285183167" cy="189.56000000000003" r="3.4" fill="#6b7290" stroke="none" stroke-width="1.5"/><circle cx="80.32566285183165" cy="110.44" r="3.4" fill="#6b7290" stroke="none" stroke-width="1.5"/><circle cx="160" cy="150" r="5" fill="#e07a1f" stroke="none" stroke-width="1.5"/><text x="170" y="140" font-size="13" fill="#e07a1f" font-style="italic">v</text><path d="M160 150 L212 92" fill="none" stroke="#c2405a" stroke-width="2.2" marker-end="url(#arR)"/><text x="218" y="88" font-size="13" fill="#c2405a" font-weight="600">K_v</text><text x="160" y="268" font-size="11.5" fill="#6b7290" text-anchor="middle">A_v = 星形面积/3　　K_v = ∂A_总/∂x_v</text></g><g transform="translate(370,16)"><text x="180" y="18" font-size="12.5" fill="#1c2033" text-anchor="middle" font-weight="600">单个三角形的面积梯度</text><polygon points="70,230 300,206 190,74" fill="#eef1f9" stroke="#1c2033" stroke-width="1.8"/><circle cx="70" cy="230" r="4.5" fill="#e07a1f" stroke="none" stroke-width="1.5"/><circle cx="300" cy="206" r="4.5" fill="#6b7290" stroke="none" stroke-width="1.5"/><circle cx="190" cy="74" r="4.5" fill="#6b7290" stroke="none" stroke-width="1.5"/><text x="64" y="250" font-size="13" fill="#e07a1f" font-style="italic">x_p</text><path d="M300,206 L190,74" fill="none" stroke="#2b8fb3" stroke-width="3"/><text x="268" y="140" font-size="13" fill="#2b8fb3" font-style="italic">e_p</text><path d="M70,230 L132.3 198.0" fill="none" stroke="#c2405a" stroke-width="2.2" marker-end="url(#arR)"/><text x="108" y="178" font-size="13" fill="#c2405a" font-weight="600">∇_p A</text><text x="180" y="266" font-size="11.5" fill="#6b7290" text-anchor="middle">∇_p A = ½ u × e_p　（垂直于对边，长度 |e_p|/2）</text></g><text x="370" y="294" font-size="11.5" fill="#6b7290" text-anchor="middle">图 8　离散平均曲率：先算面积的梯度，曲率就在里面</text></svg>