{
	"asset":{
		"generator":"Khronos glTF Blender I/O v4.1.63",
		"version":"2.0"
	},
	"extensionsUsed":[
		"KHR_materials_specular"
	],
	"scene":0,
	"scenes":[
		{
			"name":"Scene",
			"nodes":[
				0,
				1
			]
		}
	],
	"nodes":[
		{
			"mesh":0,
			"name":"Landscape"
		},
		{
			"mesh":1,
			"name":"SM_House_136"
		}
	],
	"materials":[
		{
			"doubleSided":true,
			"extensions":{
				"KHR_materials_specular":{
					"specularColorFactor":[
						2.0,
						2.0,
						2.0
					]
				}
			},
			"name":"MI_Landscape.007",
			"pbrMetallicRoughness":{
				"baseColorFactor":[
					0.2158605009317398,
					0.2158605009317398,
					0.2158605009317398,
					1
				],
				"roughnessFactor":0.5527864098548889
			}
		},
		{
			"doubleSided":true,
			"extensions":{
				"KHR_materials_specular":{
					"specularColorFactor":[
						2.0,
						2.0,
						2.0
					]
				}
			},
			"name":"M_Atlas_3.005",
			"pbrMetallicRoughness":{
				"roughnessFactor":0.5527864098548889
			}
		},
		{
			"doubleSided":true,
			"extensions":{
				"KHR_materials_specular":{
					"specularColorFactor":[
						2.0,
						2.0,
						2.0
					]
				}
			},
			"name":"M_Atlas.007",
			"pbrMetallicRoughness":{
				"roughnessFactor":0.5527864098548889
			}
		},
		{
			"doubleSided":true,
			"extensions":{
				"KHR_materials_specular":{
					"specularColorFactor":[
						2.0,
						2.0,
						2.0
					]
				}
			},
			"name":"M_Atlas_2.005",
			"pbrMetallicRoughness":{
				"roughnessFactor":0.5527864098548889
			}
		},
		{
			"doubleSided":true,
			"extensions":{
				"KHR_materials_specular":{
					"specularColorFactor":[
						2.0,
						2.0,
						2.0
					]
				}
			},
			"name":"M_Atlas_4.005",
			"pbrMetallicRoughness":{
				"roughnessFactor":0.5527864098548889
			}
		}
	],
	"meshes":[
		{
			"name":"Landscape.008",
			"primitives":[
				{
					"attributes":{
						"POSITION":0,
						"NORMAL":1,
						"TEXCOORD_0":2
					},
					"indices":3,
					"material":0
				}
			]
		},
		{
			"name":"SM_House_5.005",
			"primitives":[
				{
					"attributes":{
						"POSITION":4,
						"NORMAL":5,
						"TEXCOORD_0":6,
						"TEXCOORD_1":7
					},
					"indices":8,
					"material":1
				},
				{
					"attributes":{
						"POSITION":9,
						"NORMAL":10,
						"TEXCOORD_0":11,
						"TEXCOORD_1":12
					},
					"indices":13,
					"material":2
				},
				{
					"attributes":{
						"POSITION":14,
						"NORMAL":15,
						"TEXCOORD_0":16,
						"TEXCOORD_1":17
					},
					"indices":18,
					"material":3
				},
				{
					"attributes":{
						"POSITION":19,
						"NORMAL":20,
						"TEXCOORD_0":21,
						"TEXCOORD_1":22
					},
					"indices":23,
					"material":4
				}
			]
		}
	],
	"accessors":[
		{
			"bufferView":0,
			"componentType":5126,
			"count":1302,
			"max":[
				18.423873901367188,
				1,
				16.123809814453125
			],
			"min":[
				-22.576126098632812,
				1,
				-13.876190185546875
			],
			"type":"VEC3"
		},
		{
			"bufferView":1,
			"componentType":5126,
			"count":1302,
			"type":"VEC3"
		},
		{
			"bufferView":2,
			"componentType":5126,
			"count":1302,
			"type":"VEC2"
		},
		{
			"bufferView":3,
			"componentType":5123,
			"count":7380,
			"type":"SCALAR"
		},
		{
			"bufferView":4,
			"componentType":5126,
			"count":3239,
			"max":[
				14.877250671386719,
				8.256658554077148,
				12.460693359375
			],
			"min":[
				-17.267913818359375,
				0.9679672718048096,
				-12.66241455078125
			],
			"type":"VEC3"
		},
		{
			"bufferView":5,
			"componentType":5126,
			"count":3239,
			"type":"VEC3"
		},
		{
			"bufferView":6,
			"componentType":5126,
			"count":3239,
			"type":"VEC2"
		},
		{
			"bufferView":7,
			"componentType":5126,
			"count":3239,
			"type":"VEC2"
		},
		{
			"bufferView":8,
			"componentType":5123,
			"count":5235,
			"type":"SCALAR"
		},
		{
			"bufferView":9,
			"componentType":5126,
			"count":32261,
			"max":[
				28.923877716064453,
				9.532742500305176,
				24.123870849609375
			],
			"min":[
				-30.583450317382812,
				0.8723710179328918,
				-22.876197814941406
			],
			"type":"VEC3"
		},
		{
			"bufferView":10,
			"componentType":5126,
			"count":32261,
			"type":"VEC3"
		},
		{
			"bufferView":11,
			"componentType":5126,
			"count":32261,
			"type":"VEC2"
		},
		{
			"bufferView":12,
			"componentType":5126,
			"count":32261,
			"type":"VEC2"
		},
		{
			"bufferView":13,
			"componentType":5123,
			"count":51000,
			"type":"SCALAR"
		},
		{
			"bufferView":14,
			"componentType":5126,
			"count":1836,
			"max":[
				6.412578582763672,
				2.9259114265441895,
				8.683853149414062
			],
			"min":[
				-16.821033477783203,
				0.8723703622817993,
				-10.474830627441406
			],
			"type":"VEC3"
		},
		{
			"bufferView":15,
			"componentType":5126,
			"count":1836,
			"type":"VEC3"
		},
		{
			"bufferView":16,
			"componentType":5126,
			"count":1836,
			"type":"VEC2"
		},
		{
			"bufferView":17,
			"componentType":5126,
			"count":1836,
			"type":"VEC2"
		},
		{
			"bufferView":18,
			"componentType":5123,
			"count":2265,
			"type":"SCALAR"
		},
		{
			"bufferView":19,
			"componentType":5126,
			"count":925,
			"max":[
				5.549156188964844,
				2.2141900062561035,
				11.955291748046875
			],
			"min":[
				-15.75753402709961,
				0.8723862767219543,
				-8.656074523925781
			],
			"type":"VEC3"
		},
		{
			"bufferView":20,
			"componentType":5126,
			"count":925,
			"type":"VEC3"
		},
		{
			"bufferView":21,
			"componentType":5126,
			"count":925,
			"type":"VEC2"
		},
		{
			"bufferView":22,
			"componentType":5126,
			"count":925,
			"type":"VEC2"
		},
		{
			"bufferView":23,
			"componentType":5123,
			"count":1257,
			"type":"SCALAR"
		}
	],
	"bufferViews":[
		{
			"buffer":0,
			"byteLength":15624,
			"byteOffset":0,
			"target":34962
		},
		{
			"buffer":0,
			"byteLength":15624,
			"byteOffset":15624,
			"target":34962
		},
		{
			"buffer":0,
			"byteLength":10416,
			"byteOffset":31248,
			"target":34962
		},
		{
			"buffer":0,
			"byteLength":14760,
			"byteOffset":41664,
			"target":34963
		},
		{
			"buffer":0,
			"byteLength":38868,
			"byteOffset":56424,
			"target":34962
		},
		{
			"buffer":0,
			"byteLength":38868,
			"byteOffset":95292,
			"target":34962
		},
		{
			"buffer":0,
			"byteLength":25912,
			"byteOffset":134160,
			"target":34962
		},
		{
			"buffer":0,
			"byteLength":25912,
			"byteOffset":160072,
			"target":34962
		},
		{
			"buffer":0,
			"byteLength":10470,
			"byteOffset":185984,
			"target":34963
		},
		{
			"buffer":0,
			"byteLength":387132,
			"byteOffset":196456,
			"target":34962
		},
		{
			"buffer":0,
			"byteLength":387132,
			"byteOffset":583588,
			"target":34962
		},
		{
			"buffer":0,
			"byteLength":258088,
			"byteOffset":970720,
			"target":34962
		},
		{
			"buffer":0,
			"byteLength":258088,
			"byteOffset":1228808,
			"target":34962
		},
		{
			"buffer":0,
			"byteLength":102000,
			"byteOffset":1486896,
			"target":34963
		},
		{
			"buffer":0,
			"byteLength":22032,
			"byteOffset":1588896,
			"target":34962
		},
		{
			"buffer":0,
			"byteLength":22032,
			"byteOffset":1610928,
			"target":34962
		},
		{
			"buffer":0,
			"byteLength":14688,
			"byteOffset":1632960,
			"target":34962
		},
		{
			"buffer":0,
			"byteLength":14688,
			"byteOffset":1647648,
			"target":34962
		},
		{
			"buffer":0,
			"byteLength":4530,
			"byteOffset":1662336,
			"target":34963
		},
		{
			"buffer":0,
			"byteLength":11100,
			"byteOffset":1666868,
			"target":34962
		},
		{
			"buffer":0,
			"byteLength":11100,
			"byteOffset":1677968,
			"target":34962
		},
		{
			"buffer":0,
			"byteLength":7400,
			"byteOffset":1689068,
			"target":34962
		},
		{
			"buffer":0,
			"byteLength":7400,
			"byteOffset":1696468,
			"target":34962
		},
		{
			"buffer":0,
			"byteLength":2514,
			"byteOffset":1703868,
			"target":34963
		}
	],
	"buffers":[
		{
			"byteLength":1706384,
			"uri":"town.bin"
		}
	]
}
